<mxfile host="app.diagrams.net" agent="Mozilla/5.0 (Windows NT 10.0; Win64; x64) AppleWebKit/537.36 (KHTML, like Gecko) Chrome/135.0.0.0 Safari/537.36" version="26.2.12">
  <diagram id="R2lEEEUBdFMjLlhIrx00" name="Page-1">
    <mxGraphModel dx="1428" dy="743" grid="1" gridSize="10" guides="1" tooltips="1" connect="1" arrows="1" fold="1" page="1" pageScale="1" pageWidth="850" pageHeight="1100" math="0" shadow="0" extFonts="Permanent Marker^https://fonts.googleapis.com/css?family=Permanent+Marker">
      <root>
        <mxCell id="0" />
        <mxCell id="1" parent="0" />
        <mxCell id="JjOg_5UkUnpjXPUAS5nk-1" value="Usuario" style="whiteSpace=wrap;html=1;align=center;" vertex="1" parent="1">
          <mxGeometry x="160" y="120" width="100" height="40" as="geometry" />
        </mxCell>
        <mxCell id="JjOg_5UkUnpjXPUAS5nk-2" value="GuÃ­a" style="whiteSpace=wrap;html=1;align=center;" vertex="1" parent="1">
          <mxGeometry x="160" y="645" width="100" height="40" as="geometry" />
        </mxCell>
        <mxCell id="JjOg_5UkUnpjXPUAS5nk-3" value="Destino" style="whiteSpace=wrap;html=1;align=center;" vertex="1" parent="1">
          <mxGeometry x="160" y="350" width="100" height="40" as="geometry" />
        </mxCell>
        <mxCell id="JjOg_5UkUnpjXPUAS5nk-4" value="Pasaporte" style="whiteSpace=wrap;html=1;align=center;" vertex="1" parent="1">
          <mxGeometry x="530" y="120" width="100" height="40" as="geometry" />
        </mxCell>
        <mxCell id="JjOg_5UkUnpjXPUAS5nk-7" value="" style="triangle;whiteSpace=wrap;html=1;" vertex="1" parent="1">
          <mxGeometry x="400" y="120" width="40" height="40" as="geometry" />
        </mxCell>
        <mxCell id="JjOg_5UkUnpjXPUAS5nk-8" value="" style="triangle;whiteSpace=wrap;html=1;rotation=-180;" vertex="1" parent="1">
          <mxGeometry x="360" y="120" width="40" height="40" as="geometry" />
        </mxCell>
        <mxCell id="JjOg_5UkUnpjXPUAS5nk-9" value="" style="triangle;whiteSpace=wrap;html=1;rotation=-90;fillColor=#000000;" vertex="1" parent="1">
          <mxGeometry x="190" y="220" width="40" height="40" as="geometry" />
        </mxCell>
        <mxCell id="JjOg_5UkUnpjXPUAS5nk-10" value="" style="triangle;whiteSpace=wrap;html=1;rotation=90;fillColor=#000000;" vertex="1" parent="1">
          <mxGeometry x="190" y="260" width="40" height="40" as="geometry" />
        </mxCell>
        <mxCell id="JjOg_5UkUnpjXPUAS5nk-11" value="" style="triangle;whiteSpace=wrap;html=1;rotation=-90;" vertex="1" parent="1">
          <mxGeometry x="190" y="480" width="40" height="40" as="geometry" />
        </mxCell>
        <mxCell id="JjOg_5UkUnpjXPUAS5nk-12" value="" style="triangle;whiteSpace=wrap;html=1;rotation=90;fillColor=#000000;" vertex="1" parent="1">
          <mxGeometry x="190" y="520" width="40" height="40" as="geometry" />
        </mxCell>
        <mxCell id="JjOg_5UkUnpjXPUAS5nk-13" value="posee" style="text;html=1;align=center;verticalAlign=middle;whiteSpace=wrap;rounded=0;" vertex="1" parent="1">
          <mxGeometry x="375" y="170" width="50" height="20" as="geometry" />
        </mxCell>
        <mxCell id="JjOg_5UkUnpjXPUAS5nk-14" value="" style="endArrow=none;html=1;rounded=0;entryX=0.5;entryY=1;entryDx=0;entryDy=0;exitX=1;exitY=0.5;exitDx=0;exitDy=0;" edge="1" parent="1" source="JjOg_5UkUnpjXPUAS5nk-9" target="JjOg_5UkUnpjXPUAS5nk-1">
          <mxGeometry width="50" height="50" relative="1" as="geometry">
            <mxPoint x="320" y="440" as="sourcePoint" />
            <mxPoint x="370" y="390" as="targetPoint" />
          </mxGeometry>
        </mxCell>
        <mxCell id="JjOg_5UkUnpjXPUAS5nk-15" value="" style="endArrow=none;html=1;rounded=0;entryX=1;entryY=0.5;entryDx=0;entryDy=0;exitX=0.5;exitY=0;exitDx=0;exitDy=0;" edge="1" parent="1" source="JjOg_5UkUnpjXPUAS5nk-3" target="JjOg_5UkUnpjXPUAS5nk-10">
          <mxGeometry width="50" height="50" relative="1" as="geometry">
            <mxPoint x="220" y="230" as="sourcePoint" />
            <mxPoint x="220" y="170" as="targetPoint" />
          </mxGeometry>
        </mxCell>
        <mxCell id="JjOg_5UkUnpjXPUAS5nk-16" value="" style="endArrow=none;html=1;rounded=0;entryX=1;entryY=0.5;entryDx=0;entryDy=0;exitX=0.5;exitY=0;exitDx=0;exitDy=0;" edge="1" parent="1" source="JjOg_5UkUnpjXPUAS5nk-2" target="JjOg_5UkUnpjXPUAS5nk-12">
          <mxGeometry width="50" height="50" relative="1" as="geometry">
            <mxPoint x="220" y="230" as="sourcePoint" />
            <mxPoint x="220" y="170" as="targetPoint" />
          </mxGeometry>
        </mxCell>
        <mxCell id="JjOg_5UkUnpjXPUAS5nk-17" value="" style="endArrow=none;html=1;rounded=0;entryX=0.5;entryY=1;entryDx=0;entryDy=0;" edge="1" parent="1" source="JjOg_5UkUnpjXPUAS5nk-11" target="JjOg_5UkUnpjXPUAS5nk-3">
          <mxGeometry width="50" height="50" relative="1" as="geometry">
            <mxPoint x="230" y="240" as="sourcePoint" />
            <mxPoint x="230" y="180" as="targetPoint" />
          </mxGeometry>
        </mxCell>
        <mxCell id="JjOg_5UkUnpjXPUAS5nk-18" value="" style="endArrow=none;html=1;rounded=0;entryX=1;entryY=0.5;entryDx=0;entryDy=0;exitX=0;exitY=0.5;exitDx=0;exitDy=0;" edge="1" parent="1" source="JjOg_5UkUnpjXPUAS5nk-4" target="JjOg_5UkUnpjXPUAS5nk-7">
          <mxGeometry width="50" height="50" relative="1" as="geometry">
            <mxPoint x="220" y="360" as="sourcePoint" />
            <mxPoint x="220" y="310" as="targetPoint" />
          </mxGeometry>
        </mxCell>
        <mxCell id="JjOg_5UkUnpjXPUAS5nk-19" value="" style="endArrow=none;html=1;rounded=0;entryX=1;entryY=0.5;entryDx=0;entryDy=0;exitX=1;exitY=0.5;exitDx=0;exitDy=0;" edge="1" parent="1" source="JjOg_5UkUnpjXPUAS5nk-8" target="JjOg_5UkUnpjXPUAS5nk-1">
          <mxGeometry width="50" height="50" relative="1" as="geometry">
            <mxPoint x="230" y="370" as="sourcePoint" />
            <mxPoint x="230" y="320" as="targetPoint" />
          </mxGeometry>
        </mxCell>
        <mxCell id="JjOg_5UkUnpjXPUAS5nk-21" value="viajar" style="text;html=1;align=center;verticalAlign=middle;whiteSpace=wrap;rounded=0;" vertex="1" parent="1">
          <mxGeometry x="240" y="250" width="50" height="20" as="geometry" />
        </mxCell>
        <mxCell id="JjOg_5UkUnpjXPUAS5nk-22" value="asignar" style="text;html=1;align=center;verticalAlign=middle;whiteSpace=wrap;rounded=0;" vertex="1" parent="1">
          <mxGeometry x="240" y="510" width="50" height="20" as="geometry" />
        </mxCell>
        <mxCell id="JjOg_5UkUnpjXPUAS5nk-23" value="(1,1)" style="text;html=1;align=center;verticalAlign=middle;whiteSpace=wrap;rounded=0;" vertex="1" parent="1">
          <mxGeometry x="260" y="120" width="30" height="20" as="geometry" />
        </mxCell>
        <mxCell id="JjOg_5UkUnpjXPUAS5nk-24" value="(1,1)" style="text;html=1;align=center;verticalAlign=middle;whiteSpace=wrap;rounded=0;" vertex="1" parent="1">
          <mxGeometry x="500" y="120" width="30" height="20" as="geometry" />
        </mxCell>
        <mxCell id="JjOg_5UkUnpjXPUAS5nk-25" value="(0,M)" style="text;html=1;align=center;verticalAlign=middle;whiteSpace=wrap;rounded=0;" vertex="1" parent="1">
          <mxGeometry x="160" y="330" width="30" height="20" as="geometry" />
        </mxCell>
        <mxCell id="JjOg_5UkUnpjXPUAS5nk-26" value="(0,N)" style="text;html=1;align=center;verticalAlign=middle;whiteSpace=wrap;rounded=0;" vertex="1" parent="1">
          <mxGeometry x="160" y="160" width="30" height="20" as="geometry" />
        </mxCell>
        <mxCell id="JjOg_5UkUnpjXPUAS5nk-27" value="(0,1)" style="text;html=1;align=center;verticalAlign=middle;whiteSpace=wrap;rounded=0;" vertex="1" parent="1">
          <mxGeometry x="230" y="390" width="30" height="20" as="geometry" />
        </mxCell>
        <mxCell id="JjOg_5UkUnpjXPUAS5nk-28" value="(1,N)" style="text;html=1;align=center;verticalAlign=middle;whiteSpace=wrap;rounded=0;" vertex="1" parent="1">
          <mxGeometry x="230" y="625" width="30" height="20" as="geometry" />
        </mxCell>
        <mxCell id="JjOg_5UkUnpjXPUAS5nk-29" value="1:1" style="text;html=1;align=center;verticalAlign=middle;whiteSpace=wrap;rounded=0;fontStyle=1;fontSize=14;" vertex="1" parent="1">
          <mxGeometry x="375" y="90" width="50" height="20" as="geometry" />
        </mxCell>
        <mxCell id="JjOg_5UkUnpjXPUAS5nk-30" value="N:M" style="text;html=1;align=center;verticalAlign=middle;whiteSpace=wrap;rounded=0;fontStyle=1;fontSize=14;" vertex="1" parent="1">
          <mxGeometry x="140" y="250" width="50" height="20" as="geometry" />
        </mxCell>
        <mxCell id="JjOg_5UkUnpjXPUAS5nk-31" value="1:N" style="text;html=1;align=center;verticalAlign=middle;whiteSpace=wrap;rounded=0;fontStyle=1;fontSize=14;" vertex="1" parent="1">
          <mxGeometry x="140" y="510" width="50" height="20" as="geometry" />
        </mxCell>
        <mxCell id="JjOg_5UkUnpjXPUAS5nk-32" value="Nombre" style="ellipse;whiteSpace=wrap;html=1;align=center;fontSize=10;" vertex="1" parent="1">
          <mxGeometry x="160" y="87.5" width="40" height="25" as="geometry" />
        </mxCell>
        <mxCell id="JjOg_5UkUnpjXPUAS5nk-34" value="Apellidos" style="ellipse;whiteSpace=wrap;html=1;align=center;fontSize=10;" vertex="1" parent="1">
          <mxGeometry x="210" y="85" width="50" height="30" as="geometry" />
        </mxCell>
        <mxCell id="JjOg_5UkUnpjXPUAS5nk-35" value="Edad" style="ellipse;whiteSpace=wrap;html=1;align=center;fontSize=10;" vertex="1" parent="1">
          <mxGeometry x="105" y="180" width="40" height="20" as="geometry" />
        </mxCell>
        <mxCell id="JjOg_5UkUnpjXPUAS5nk-36" value="Email" style="ellipse;whiteSpace=wrap;html=1;align=center;fontSize=10;" vertex="1" parent="1">
          <mxGeometry x="100" y="150" width="50" height="20" as="geometry" />
        </mxCell>
        <mxCell id="JjOg_5UkUnpjXPUAS5nk-37" value="id.usuario" style="ellipse;whiteSpace=wrap;html=1;align=center;fontSize=10;" vertex="1" parent="1">
          <mxGeometry x="100" y="117.5" width="50" height="25" as="geometry" />
        </mxCell>
        <mxCell id="JjOg_5UkUnpjXPUAS5nk-38" value="&lt;u&gt;DNI&lt;/u&gt;" style="ellipse;whiteSpace=wrap;html=1;align=center;fontSize=10;" vertex="1" parent="1">
          <mxGeometry x="105" y="90" width="40" height="20" as="geometry" />
        </mxCell>
        <mxCell id="JjOg_5UkUnpjXPUAS5nk-39" value="&lt;u&gt;id.destino&lt;/u&gt;" style="ellipse;whiteSpace=wrap;html=1;align=center;fontSize=10;" vertex="1" parent="1">
          <mxGeometry x="100" y="322.5" width="50" height="30" as="geometry" />
        </mxCell>
        <mxCell id="JjOg_5UkUnpjXPUAS5nk-40" value="&lt;span&gt;Ciudad&lt;/span&gt;" style="ellipse;whiteSpace=wrap;html=1;align=center;fontSize=10;fontStyle=0" vertex="1" parent="1">
          <mxGeometry x="100" y="357.5" width="50" height="25" as="geometry" />
        </mxCell>
        <mxCell id="JjOg_5UkUnpjXPUAS5nk-41" value="Pais" style="ellipse;whiteSpace=wrap;html=1;align=center;fontSize=10;fontStyle=0" vertex="1" parent="1">
          <mxGeometry x="100" y="392.5" width="50" height="25" as="geometry" />
        </mxCell>
        <mxCell id="JjOg_5UkUnpjXPUAS5nk-42" value="&lt;span&gt;Pasaporte?&lt;/span&gt;" style="ellipse;whiteSpace=wrap;html=1;align=center;fontSize=10;fontStyle=0" vertex="1" parent="1">
          <mxGeometry x="30" y="352.5" width="60" height="32.5" as="geometry" />
        </mxCell>
        <mxCell id="JjOg_5UkUnpjXPUAS5nk-43" value="&lt;span&gt;id.guÃ­a&lt;/span&gt;" style="ellipse;whiteSpace=wrap;html=1;align=center;fontSize=10;fontStyle=0" vertex="1" parent="1">
          <mxGeometry x="105" y="570" width="50" height="30" as="geometry" />
        </mxCell>
        <mxCell id="JjOg_5UkUnpjXPUAS5nk-44" value="&lt;u&gt;DNI&lt;/u&gt;" style="ellipse;whiteSpace=wrap;html=1;align=center;fontSize=10;" vertex="1" parent="1">
          <mxGeometry x="105" y="610" width="50" height="30" as="geometry" />
        </mxCell>
        <mxCell id="JjOg_5UkUnpjXPUAS5nk-45" value="&lt;span&gt;nombre&lt;br&gt;&lt;/span&gt;" style="ellipse;whiteSpace=wrap;html=1;align=center;fontSize=10;fontStyle=0" vertex="1" parent="1">
          <mxGeometry x="105" y="650" width="50" height="30" as="geometry" />
        </mxCell>
        <mxCell id="JjOg_5UkUnpjXPUAS5nk-46" value="apellidos" style="ellipse;whiteSpace=wrap;html=1;align=center;fontSize=10;" vertex="1" parent="1">
          <mxGeometry x="105" y="690" width="50" height="30" as="geometry" />
        </mxCell>
        <mxCell id="JjOg_5UkUnpjXPUAS5nk-47" value="especialidad" style="ellipse;whiteSpace=wrap;html=1;align=center;fontSize=10;" vertex="1" parent="1">
          <mxGeometry x="40" y="650" width="60" height="30" as="geometry" />
        </mxCell>
        <mxCell id="JjOg_5UkUnpjXPUAS5nk-48" value="numero" style="ellipse;whiteSpace=wrap;html=1;align=center;fontSize=10;fontStyle=4" vertex="1" parent="1">
          <mxGeometry x="525" y="80" width="50" height="30" as="geometry" />
        </mxCell>
        <mxCell id="JjOg_5UkUnpjXPUAS5nk-49" value="pais_exp" style="ellipse;whiteSpace=wrap;html=1;align=center;fontSize=10;fontStyle=4" vertex="1" parent="1">
          <mxGeometry x="585" y="80" width="50" height="30" as="geometry" />
        </mxCell>
        <mxCell id="JjOg_5UkUnpjXPUAS5nk-50" value="Email" style="ellipse;whiteSpace=wrap;html=1;align=center;fontSize=10;" vertex="1" parent="1">
          <mxGeometry x="105" y="730" width="50" height="20" as="geometry" />
        </mxCell>
        <mxCell id="JjOg_5UkUnpjXPUAS5nk-51" value="- Se agregan los Atributos DNI para utilizarlos como claves primarias&lt;br&gt;- El numero de pasaporte no es un numero fijo y puede cambiar con el tiempo. Â¿Como se reflela esto en la BBDD por el tema de la clave primaria? El numero en principio le da igual a la BBDD, lo que importa es si hay o no pasaporte para dejar reservar destino.&lt;div&gt;- Habra que agregar un campo que es si la fecha de validez del pasaporte&lt;br&gt;- A que se refiere el esquema fÃ­sico de la BBDD?&lt;br&gt;&lt;div&gt;&lt;br&gt;&lt;/div&gt;&lt;/div&gt;" style="text;html=1;align=left;verticalAlign=middle;whiteSpace=wrap;rounded=0;fontSize=14;" vertex="1" parent="1">
          <mxGeometry x="390" y="320" width="380" height="210" as="geometry" />
        </mxCell>
        <mxCell id="JjOg_5UkUnpjXPUAS5nk-52" value="fecha_validez" style="ellipse;whiteSpace=wrap;html=1;align=center;fontSize=10;fontStyle=4" vertex="1" parent="1">
          <mxGeometry x="545" y="170" width="70" height="30" as="geometry" />
        </mxCell>
      </root>
    </mxGraphModel>
  </diagram>
</mxfile>
